<svg width="25" height="25" viewBox="0 0 25 25" fill="none" xmlns="http://www.w3.org/2000/svg">
<path d="M4.51111 11.5978H4.58986C5.28111 14.0387 7.10977 16.0088 9.45486 16.9154C9.45468 16.9154 9.45503 16.9155 9.45486 16.9154C9.50867 17.8158 9.51121 18.7232 9.44576 19.6176C9.33638 21.1006 9.07835 21.7999 8.75276 22.6853C8.72441 22.7619 8.69431 22.8515 8.66543 22.9305H7.21556C6.73195 22.9305 6.34056 23.3209 6.34056 23.8023C6.34056 24.2836 6.73195 24.674 7.21556 24.674H9.28345H15.4888H17.5567C18.0403 24.674 18.4317 24.2836 18.4317 23.8023C18.4317 23.3209 18.0403 22.9305 17.5567 22.9305H16.1068C16.0779 22.8516 16.0478 22.7619 16.0195 22.6853C15.6939 21.7999 15.4358 21.1005 15.3265 19.618C15.261 18.7231 15.2631 17.8159 15.3169 16.9155C15.3167 16.9155 15.3171 16.9155 15.3169 16.9155C17.662 16.0089 19.4911 14.0387 20.1824 11.5978H20.2611C22.6761 11.5978 24.6361 9.64508 24.6361 7.23905V3.51669C24.6361 3.02851 24.2424 2.64495 23.7611 2.64495H20.4974V1.13682C20.4974 0.657362 20.1124 0.265076 19.6224 0.265076H5.14986C4.65986 0.265076 4.27486 0.657362 4.27486 1.13682V2.64495H1.01111C0.529858 2.64495 0.136108 3.02851 0.136108 3.51669V7.23905C0.136108 9.64508 2.09611 11.5978 4.51111 11.5978ZM13.5815 19.7453C13.6927 21.2521 13.9541 22.115 14.2471 22.9305H10.525C10.8181 22.115 11.0796 21.2521 11.1906 19.7449C11.2479 18.96 11.2484 18.1669 11.2213 17.3756C11.2246 17.376 11.2277 17.377 11.231 17.3775C11.6073 17.4385 11.9923 17.4646 12.386 17.4646C12.7798 17.4646 13.1648 17.4385 13.541 17.3775C13.5443 17.377 13.5474 17.376 13.5507 17.3756C13.5237 18.1669 13.5242 18.9602 13.5815 19.7453ZM22.8861 4.38844V7.23905C22.8861 8.59898 21.8361 9.72353 20.4974 9.84558V9.37484V4.38844H22.8861ZM6.02486 2.00857H18.7474V3.51669V9.37484C18.7474 12.8705 15.8949 15.7212 12.3861 15.7212C8.87736 15.7212 6.02486 12.8705 6.02486 9.37484V3.51669V2.00857ZM1.88611 4.38844H4.27486V9.37484V9.84558C2.93611 9.72353 1.88611 8.59898 1.88611 7.23905V4.38844Z" fill="#333845"/>
<path d="M12.3861 11.5978C14.0749 11.5978 15.4486 10.2291 15.4486 8.54666C15.4486 6.86419 14.0749 5.49554 12.3861 5.49554C10.6974 5.49554 9.32361 6.86419 9.32361 8.54666C9.32361 10.2291 10.6974 11.5978 12.3861 11.5978ZM12.3861 7.23904C13.1124 7.23904 13.6986 7.82311 13.6986 8.54666C13.6986 9.27021 13.1124 9.85428 12.3861 9.85428C11.6599 9.85428 11.0736 9.27021 11.0736 8.54666C11.0736 7.82311 11.6599 7.23904 12.3861 7.23904Z" fill="#333845"/>
</svg>
